<svg 
 xmlns="http://www.w3.org/2000/svg"
 xmlns:xlink="http://www.w3.org/1999/xlink"
 width="23px" height="24px">
<path fill-rule="evenodd"  fill="rgb(224, 223, 218)"
 d="M12.753,15.339 L20.842,23.899 L22.116,22.720 L14.080,14.215 C15.293,12.944 16.101,11.273 16.273,9.391 C16.674,4.973 13.418,1.080 9.000,0.696 C4.582,0.311 0.674,3.582 0.273,8.000 C-0.129,12.418 3.127,16.311 7.545,16.696 C9.459,16.862 11.275,16.340 12.753,15.339 ZM12.054,14.603 C10.786,15.419 9.251,15.836 7.636,15.696 C3.770,15.359 0.921,11.953 1.273,8.087 C1.624,4.221 5.043,1.359 8.909,1.696 C12.775,2.032 15.624,5.438 15.272,9.304 C15.125,10.931 14.430,12.382 13.390,13.490 L12.054,14.603 Z"/>
</svg>