<svg id="Layer_1" xmlns="http://www.w3.org/2000/svg" viewBox="0 0 380 96"><style>.st0{fill:#d91f26}.st1{fill:#f6d432}.st2{fill:#861619}</style><path class="st0" d="M100.2 66.7C91 51.9 85.4 34.6 84.6 16.1c-.1-2.5-2.2-4.5-4.7-4.5H59.2c-2.7 0-4.8 2.2-4.7 4.9 1.3 25.7 12.4 48.9 29.7 65.7 1.8 1.8 4.7 1.8 6.6 0 3.3-3.2 6.3-6.6 9.1-10.2 1.2-1.5 1.3-3.6.3-5.3"/><path class="st1" d="M120.6 11.6H95.3c-2.7 0-4.8 2.2-4.7 4.9.7 14.4 4.5 28 10.7 40.1 1.8 3.4 6.6 3.4 8.3 0 .1-.2.2-.4.3-.7.1-.1.1-.2.2-.3 6.8-13.2 10.5-28.2 10.5-44z"/><path class="st2" d="M64.1 66.7c-9.2-14.8-14.8-32.1-15.6-50.6-.1-2.5-2.2-4.5-4.7-4.5H18.2c0 18.2 4.9 35.3 13.6 49.9.2.3.4.6.5.9.1.2.3.4.4.6l.9 1.5c.1.1.2.3.3.4 1.2 1.9 2.5 3.7 3.8 5.5 3.1 4.2 6.6 8.2 10.4 11.9.2.2.5.4.7.5 1.8 1.1 4.2.9 5.8-.6 3.3-3.2 6.3-6.6 9.1-10.2 1.3-1.5 1.4-3.6.4-5.3M304 32.1l-8.9 21.5-8.4-23.1-8.8 23.1-8.4-21.5h-5.2l13.6 34.2 8.7-22.8 8.3 22.8 14.3-34.2zm19-.7c-4.6 0-8.6 1.6-11.9 4.9-3.3 3.3-5 7.1-5 11.7 0 5.2 1.8 9.3 5.5 12.5 3.3 2.9 7 4.3 11.2 4.3 4.7 0 8.7-1.6 12-4.9 3.3-3.2 5-7.2 5-11.8 0-4.6-1.6-8.5-4.9-11.8-3.4-3.2-7.3-4.9-11.9-4.9m8.3 25.4c-2.3 2.3-5.2 3.5-8.6 3.5-3.1 0-5.9-1.1-8.2-3.4-2.4-2.3-3.6-5.2-3.6-8.8 0-3.4 1.2-6.2 3.5-8.6 2.3-2.3 5.1-3.5 8.5-3.5 3.4 0 6.2 1.2 8.5 3.5s3.4 5.2 3.4 8.6c0 3.4-1.1 6.3-3.5 8.7M351 46.6l14.6-14.5h-6.5l-12.6 12.8V32.1h-4.8v32.2h4.8V50.9l1-1 11.6 14.4h6.5z"/><path class="st0" d="M225.8 59.7h-11V32.1h-4.9v27.6h-11V32.1H194v32.2h36.7V32.1h-4.9zm13-5.3V32.1H234v34.1l23.5-24.5v22.6h4.8V29.9zm-63.1-3.7L165 32.1h-5.6l13.5 23.4-5 8.8h5.6l2.2-3.9 2.8-4.9 13.6-23.4h-5.6zm-19.8 6.1c-2.3 2.3-5.2 3.5-8.6 3.5-3.1 0-5.9-1.1-8.2-3.4-2.4-2.3-3.6-5.2-3.6-8.8 0-3.4 1.2-6.2 3.5-8.6 2.3-2.3 5.1-3.5 8.5-3.5 3.4 0 6.2 1.2 8.5 3.5l.1.1 3.3-3.3c-3.3-3.2-7.2-4.9-11.7-4.9-4.6 0-8.6 1.6-11.9 4.9-3.3 3.3-5 7.1-5 11.7 0 5.2 1.8 9.3 5.5 12.5 3.3 2.9 7 4.3 11.2 4.3 4.7 0 8.7-1.6 12-4.8l-3.3-3.3c-.2 0-.2.1-.3.1"/></svg>